<svg width="1062" height="1265" viewBox="0 0 1062 1265" fill="none" xmlns="http://www.w3.org/2000/svg">
<g id="Map" clip-path="url(#clip0_0_2977)">
<g id="np_california_725261_000000 copy" opacity="0.29827">
<path id="Shape" d="M1007.08 933.448L442.182 413.142V22.8104L27.1096 0C23.9043 7.54402 3.36709 29.2855 6.57176 41.404C10.43 55.898 29.8387 51.2648 35.4776 60.5906C42.0661 71.58 30.7291 116.251 27.3457 129.14C20.8759 153.555 6.09676 173.335 1.82235 197.75C-5.35982 238.737 9.18245 235.47 36.7242 261.073C83.141 304.258 45.9244 349.048 57.6176 399.777C67.1146 441.122 108.605 462.446 123.8 503.789C135.553 535.63 151.697 543.767 176.746 567.053C176.153 552.916 163.51 511.215 187.253 514.898C210.817 518.522 201.736 553.331 206.247 567.885C210.045 580.003 236.933 604.239 214.616 615.407C207.196 619.09 186.066 604.418 177.577 600.497C183.572 619.209 179.774 638.633 189.271 656.513C200.608 677.838 212.835 669.641 227.853 681.225C243.344 693.164 241.683 706.886 234.797 724.945C227.615 743.775 220.196 740.865 231.592 763.557C239.843 779.951 253.85 800.742 265.9 813.216C272.904 820.463 280.502 822.127 287.506 831.393C293.323 839.115 291.067 849.214 298.012 856.164C309.883 868.104 330.006 868.282 339.384 883.904C349.831 901.309 337.96 914.437 368.706 912.833C370.309 947.643 376.897 979.185 376.541 1013.99C393.695 1020.82 421.414 1012.69 439.399 1009.06C457.266 1033.18 480.355 1016.43 500.774 1029.56C509.678 1035.26 507.837 1049.52 513.239 1054.51C524.339 1064.72 532.529 1058.31 546.301 1061.87C556.51 1064.49 564.404 1071.97 574.138 1074.7C583.338 1077.26 598.475 1071.26 605.301 1079.4C613.492 1089.14 599.78 1106.96 612.127 1114.8C622.395 1121.33 637.115 1105.77 647.088 1108.03C658.721 1110.7 692.079 1141.17 700.271 1151.21C709.59 1162.68 718.969 1184.06 724.25 1198.79C732.501 1221.84 731.373 1233.13 748.408 1250C759.27 1260.75 748.942 1261.52 766.63 1264.67C778.204 1266.75 793.518 1258.37 805.212 1257.07C829.549 1254.39 854.122 1259.03 878.102 1254.45C900.421 1250.18 921.729 1243.17 944.64 1239.9C964.465 1237.05 999.367 1239.25 1016.94 1229.8C1035.99 1219.64 1037.71 1196.65 1010.17 1200.93C1007.97 1186.26 1017.77 1166 1006.85 1155.85C1022.04 1135.06 1027.56 1120.38 1029.93 1094.96C1031 1083.79 1031.48 1071.44 1037 1062.05C1042.4 1052.78 1057.59 1047.26 1060.56 1039.3C1065.13 1026.94 1057.83 1021.42 1052.25 1014.53C1048.69 1010.07 1038.54 1012.21 1035.63 1008.29C1030.23 1001.1 1035.57 993.678 1032.6 986.431C1023.94 965.462 1013.61 957.205 1007.08 933.444C1007.26 937.424 1007.44 941.463 1007.2 945.384" stroke="white" stroke-width="2" stroke-linecap="round" stroke-linejoin="round"/>
</g>
<path id="Path 3" d="M728.114 853.939C719.546 877.321 739.614 885.526 755.675 900.807C760.434 905.336 760.888 912.817 755.879 917.342C745.107 927.074 704.264 912.917 706.854 925.745C709.53 938.994 744.061 957.531 745.618 958.799C759.284 969.932 763.735 998.174 756.208 1013.66C750.852 1024.68 715.342 1020.96 704.172 1017.29C631.024 993.266 663.985 996.131 581.817 988.67C575.527 988.099 568.935 987.806 562.894 989.65C556.671 991.549 556.869 999.339 558.957 1003.55C565.876 1017.51 596.849 1041.18 588.514 1059.52C585.956 1065.15 579.963 1068.71 577.264 1074.27C575.151 1078.63 575.385 1083.77 574.445 1088.52" stroke="white" stroke-width="2"/>
<circle id="Oval" cx="572.5" cy="1089.5" r="6.5" fill="#4AF6CD"/>
<circle id="Oval Copy 2" cx="660" cy="1130" r="3" fill="#4AF6CD"/>
<circle id="Oval Copy 6" cx="724" cy="1238" r="3" fill="#4AF6CD"/>
<circle id="Oval Copy 7" cx="364" cy="995" r="3" fill="#4AF6CD"/>
<circle id="Oval Copy" cx="728.5" cy="854.5" r="6.5" fill="#4AF6CD"/>
<path id="West Shore | Malibu," d="M394.576 1094L396.816 1082.98H395.424L393.584 1092.67L391.408 1082.98H389.792L387.664 1092.67L385.888 1082.98H384.4L386.64 1094H388.544L390.592 1084.77L392.624 1094H394.576ZM404.622 1089.54C404.622 1086.96 403.422 1085.38 401.15 1085.38C398.974 1085.38 397.646 1087.25 397.646 1089.87C397.646 1092.54 399.022 1094.19 401.374 1094.19C402.542 1094.19 403.486 1093.79 404.318 1093.14L403.678 1092.26C402.942 1092.77 402.318 1092.99 401.486 1092.99C400.27 1092.99 399.358 1092.24 399.214 1090.29H404.59C404.606 1090.1 404.622 1089.82 404.622 1089.54ZM403.166 1089.2H399.214C399.326 1087.33 400.062 1086.54 401.182 1086.54C402.51 1086.54 403.166 1087.46 403.166 1089.1V1089.2ZM409.339 1085.38C407.595 1085.38 406.299 1086.35 406.299 1087.68C406.299 1088.88 407.019 1089.66 408.843 1090.14C410.475 1090.58 410.891 1090.9 410.891 1091.78C410.891 1092.51 410.187 1093.01 409.083 1093.01C408.171 1093.01 407.387 1092.7 406.747 1092.16L405.931 1093.09C406.667 1093.73 407.691 1094.19 409.115 1094.19C410.827 1094.19 412.443 1093.39 412.443 1091.63C412.443 1090.16 411.419 1089.46 409.643 1089.01C408.283 1088.66 407.835 1088.34 407.835 1087.65C407.835 1086.98 408.427 1086.54 409.387 1086.54C410.171 1086.54 410.827 1086.78 411.563 1087.31L412.203 1086.34C411.403 1085.73 410.523 1085.38 409.339 1085.38ZM418.776 1093.62L418.216 1092.61C417.8 1092.86 417.464 1092.98 417.096 1092.98C416.36 1092.98 416.088 1092.58 416.088 1091.73V1086.7H417.928L418.088 1085.57H416.088V1083.49L414.616 1083.66V1085.57H413.144V1086.7H414.616V1091.79C414.616 1093.36 415.464 1094.19 416.888 1094.19C417.608 1094.19 418.216 1094 418.776 1093.62ZM427.336 1082.78C425.304 1082.78 423.864 1083.97 423.864 1085.66C423.864 1087.38 424.984 1088.19 427.128 1088.85C429 1089.42 429.512 1089.9 429.512 1090.98C429.512 1092.3 428.44 1092.94 427.144 1092.94C425.944 1092.94 425.048 1092.51 424.296 1091.79L423.416 1092.77C424.328 1093.66 425.576 1094.19 427.16 1094.19C429.64 1094.19 431.096 1092.85 431.096 1090.93C431.096 1088.82 429.592 1088.13 427.832 1087.58C425.848 1086.98 425.416 1086.53 425.416 1085.6C425.416 1084.54 426.296 1084.03 427.4 1084.03C428.312 1084.03 429.08 1084.32 429.88 1085.02L430.744 1084.06C429.816 1083.23 428.856 1082.78 427.336 1082.78ZM437.222 1085.38C436.166 1085.38 435.334 1085.9 434.726 1086.74V1082.03L433.254 1082.19V1094H434.726V1088C435.286 1087.12 435.942 1086.53 436.854 1086.53C437.654 1086.53 438.198 1086.9 438.198 1088.16V1094H439.67V1087.95C439.67 1086.37 438.758 1085.38 437.222 1085.38ZM445.797 1085.38C443.397 1085.38 442.021 1087.18 442.021 1089.79C442.021 1092.46 443.381 1094.19 445.781 1094.19C448.165 1094.19 449.541 1092.38 449.541 1089.78C449.541 1087.1 448.197 1085.38 445.797 1085.38ZM445.797 1086.56C447.189 1086.56 447.957 1087.58 447.957 1089.78C447.957 1091.98 447.189 1093.01 445.781 1093.01C444.373 1093.01 443.605 1091.98 443.605 1089.79C443.605 1087.58 444.389 1086.56 445.797 1086.56ZM455.637 1085.38C454.613 1085.38 453.829 1086.02 453.381 1087.28L453.237 1085.57H451.973V1094H453.445V1089.18C453.797 1087.57 454.405 1086.82 455.461 1086.82C455.765 1086.82 455.941 1086.85 456.197 1086.91L456.469 1085.47C456.213 1085.41 455.909 1085.38 455.637 1085.38ZM464.357 1089.54C464.357 1086.96 463.157 1085.38 460.885 1085.38C458.709 1085.38 457.381 1087.25 457.381 1089.87C457.381 1092.54 458.757 1094.19 461.109 1094.19C462.277 1094.19 463.221 1093.79 464.053 1093.14L463.413 1092.26C462.677 1092.77 462.053 1092.99 461.221 1092.99C460.005 1092.99 459.093 1092.24 458.949 1090.29H464.325C464.341 1090.1 464.357 1089.82 464.357 1089.54ZM462.901 1089.2H458.949C459.061 1087.33 459.797 1086.54 460.917 1086.54C462.245 1086.54 462.901 1087.46 462.901 1089.1V1089.2ZM472.972 1081.18V1095.57H472.62V1081.18H472.972ZM491.8 1094L490.888 1082.98H488.824L486.616 1090.99L484.296 1082.98H482.248L481.336 1094H482.776L483.144 1089.14C483.272 1087.52 483.352 1085.81 483.352 1084.51L485.864 1092.75H487.288L489.672 1084.53C489.688 1085.44 489.8 1087.3 489.944 1089.02L490.328 1094H491.8ZM500.278 1092.03V1088.18C500.278 1086.42 499.35 1085.38 497.318 1085.38C496.374 1085.38 495.446 1085.57 494.406 1085.95L494.774 1087.02C495.638 1086.74 496.422 1086.58 497.046 1086.58C498.214 1086.58 498.806 1087.02 498.806 1088.24V1088.86H497.51C495.158 1088.86 493.798 1089.84 493.798 1091.65C493.798 1093.15 494.806 1094.19 496.486 1094.19C497.51 1094.19 498.406 1093.81 498.998 1092.93C499.254 1093.76 499.798 1094.1 500.646 1094.19L500.982 1093.17C500.55 1093.01 500.278 1092.77 500.278 1092.03ZM496.822 1093.09C495.862 1093.09 495.366 1092.56 495.366 1091.57C495.366 1090.42 496.15 1089.84 497.702 1089.84H498.806V1091.78C498.326 1092.66 497.686 1093.09 496.822 1093.09ZM504.693 1092.3V1082L503.221 1082.18V1092.34C503.221 1093.55 503.829 1094.19 504.901 1094.19C505.333 1094.19 505.749 1094.1 506.149 1093.9L505.765 1092.88C505.605 1092.94 505.429 1092.98 505.221 1092.98C504.837 1092.98 504.693 1092.75 504.693 1092.3ZM508.709 1081.52C508.101 1081.52 507.685 1081.95 507.685 1082.53C507.685 1083.09 508.101 1083.52 508.709 1083.52C509.333 1083.52 509.749 1083.09 509.749 1082.53C509.749 1081.95 509.333 1081.52 508.709 1081.52ZM509.461 1094V1085.57H507.989V1094H509.461ZM516.36 1085.38C515.336 1085.38 514.552 1085.84 513.976 1086.62V1082L512.504 1082.18V1094H513.8L513.944 1093.07C514.52 1093.78 515.256 1094.19 516.184 1094.19C518.232 1094.19 519.496 1092.42 519.496 1089.78C519.496 1086.96 518.264 1085.38 516.36 1085.38ZM515.832 1093.02C515.08 1093.02 514.408 1092.56 513.976 1091.89V1087.86C514.408 1087.18 515.016 1086.54 515.944 1086.54C517.128 1086.54 517.912 1087.38 517.912 1089.78C517.912 1092.08 517.064 1093.02 515.832 1093.02ZM528.276 1094V1085.57H526.804V1091.58C526.292 1092.43 525.604 1093.04 524.692 1093.04C523.78 1093.04 523.396 1092.61 523.396 1091.46V1085.57H521.924V1091.62C521.924 1093.26 522.804 1094.19 524.276 1094.19C525.476 1094.19 526.26 1093.71 526.9 1092.69L527.012 1094H528.276ZM531.701 1091.97C531.077 1091.97 530.597 1092.46 530.597 1093.07C530.597 1093.46 530.773 1093.79 531.045 1094L530.405 1096.66H531.461L532.533 1094.21C532.741 1093.74 532.821 1093.42 532.821 1093.07C532.821 1092.46 532.341 1091.97 531.701 1091.97ZM543.331 1082.78C540.835 1082.78 538.755 1084.75 538.755 1088.48C538.755 1092.19 540.691 1094.19 543.363 1094.19C544.851 1094.19 545.923 1093.58 546.515 1092.96L545.747 1091.98C545.123 1092.45 544.451 1092.91 543.411 1092.91C541.699 1092.91 540.371 1091.66 540.371 1088.48C540.371 1085.15 541.763 1084.03 543.427 1084.03C544.195 1084.03 544.867 1084.29 545.555 1084.85L546.387 1083.87C545.507 1083.17 544.723 1082.78 543.331 1082.78ZM553.468 1091.23L554.3 1094H555.9L552.38 1082.98H550.46L546.924 1094H548.46L549.292 1091.23H553.468ZM553.1 1090H549.66L551.388 1084.24L553.1 1090Z" fill="white"/>
<path id="Current Location" d="M597.144 847.784C594.648 847.784 592.568 849.752 592.568 853.48C592.568 857.192 594.504 859.192 597.176 859.192C598.664 859.192 599.736 858.584 600.328 857.96L599.56 856.984C598.936 857.448 598.264 857.912 597.224 857.912C595.512 857.912 594.184 856.664 594.184 853.48C594.184 850.152 595.576 849.032 597.24 849.032C598.008 849.032 598.68 849.288 599.368 849.848L600.2 848.872C599.32 848.168 598.536 847.784 597.144 847.784ZM608.433 859V850.568H606.961V856.584C606.449 857.432 605.761 858.04 604.849 858.04C603.937 858.04 603.553 857.608 603.553 856.456V850.568H602.081V856.616C602.081 858.264 602.961 859.192 604.433 859.192C605.633 859.192 606.417 858.712 607.057 857.688L607.169 859H608.433ZM615.137 850.376C614.113 850.376 613.329 851.016 612.881 852.28L612.737 850.568H611.473V859H612.945V854.184C613.297 852.568 613.905 851.816 614.961 851.816C615.265 851.816 615.441 851.848 615.697 851.912L615.969 850.472C615.713 850.408 615.409 850.376 615.137 850.376ZM621.309 850.376C620.285 850.376 619.501 851.016 619.053 852.28L618.909 850.568H617.645V859H619.117V854.184C619.469 852.568 620.077 851.816 621.133 851.816C621.437 851.816 621.613 851.848 621.869 851.912L622.141 850.472C621.885 850.408 621.581 850.376 621.309 850.376ZM630.029 854.536C630.029 851.96 628.829 850.376 626.557 850.376C624.381 850.376 623.053 852.248 623.053 854.872C623.053 857.544 624.429 859.192 626.781 859.192C627.949 859.192 628.893 858.792 629.725 858.136L629.085 857.256C628.349 857.768 627.725 857.992 626.893 857.992C625.677 857.992 624.765 857.24 624.621 855.288H629.997C630.013 855.096 630.029 854.824 630.029 854.536ZM628.573 854.2H624.621C624.733 852.328 625.469 851.544 626.589 851.544C627.917 851.544 628.573 852.456 628.573 854.104V854.2ZM636.426 850.376C635.322 850.376 634.426 850.952 633.85 851.816L633.722 850.568H632.458V859H633.93V853.016C634.49 852.12 635.13 851.528 636.074 851.528C636.89 851.528 637.402 851.896 637.402 853.16V859H638.874V852.952C638.874 851.352 637.978 850.376 636.426 850.376ZM646.089 858.616L645.529 857.608C645.113 857.864 644.777 857.976 644.409 857.976C643.673 857.976 643.401 857.576 643.401 856.728V851.704H645.241L645.401 850.568H643.401V848.488L641.929 848.664V850.568H640.457V851.704H641.929V856.792C641.929 858.36 642.777 859.192 644.201 859.192C644.921 859.192 645.529 859 646.089 858.616ZM653.448 857.672V847.976H651.928V859H657.8L657.976 857.672H653.448ZM662.985 850.376C660.585 850.376 659.209 852.184 659.209 854.792C659.209 857.464 660.569 859.192 662.969 859.192C665.353 859.192 666.729 857.384 666.729 854.776C666.729 852.104 665.385 850.376 662.985 850.376ZM662.985 851.56C664.377 851.56 665.145 852.584 665.145 854.776C665.145 856.984 664.377 858.008 662.969 858.008C661.561 858.008 660.793 856.984 660.793 854.792C660.793 852.584 661.577 851.56 662.985 851.56ZM672.233 850.376C669.945 850.376 668.553 852.168 668.553 854.856C668.553 857.576 669.961 859.192 672.233 859.192C673.209 859.192 674.057 858.872 674.809 858.264L674.105 857.256C673.497 857.72 673.001 857.944 672.297 857.944C670.969 857.944 670.137 857.032 670.137 854.824C670.137 852.632 670.969 851.592 672.297 851.592C673.001 851.592 673.529 851.8 674.089 852.248L674.809 851.288C674.025 850.632 673.225 850.376 672.233 850.376ZM682.481 857.032V853.176C682.481 851.416 681.553 850.376 679.521 850.376C678.577 850.376 677.649 850.568 676.609 850.952L676.977 852.024C677.841 851.736 678.625 851.576 679.249 851.576C680.417 851.576 681.009 852.024 681.009 853.24V853.864H679.713C677.361 853.864 676.001 854.84 676.001 856.648C676.001 858.152 677.009 859.192 678.689 859.192C679.713 859.192 680.609 858.808 681.201 857.928C681.457 858.76 682.001 859.096 682.849 859.192L683.185 858.168C682.753 858.008 682.481 857.768 682.481 857.032ZM679.025 858.088C678.065 858.088 677.569 857.56 677.569 856.568C677.569 855.416 678.353 854.84 679.905 854.84H681.009V856.776C680.529 857.656 679.889 858.088 679.025 858.088ZM689.76 858.616L689.2 857.608C688.784 857.864 688.448 857.976 688.08 857.976C687.344 857.976 687.072 857.576 687.072 856.728V851.704H688.912L689.072 850.568H687.072V848.488L685.6 848.664V850.568H684.128V851.704H685.6V856.792C685.6 858.36 686.448 859.192 687.872 859.192C688.592 859.192 689.2 859 689.76 858.616ZM692.006 846.52C691.398 846.52 690.982 846.952 690.982 847.528C690.982 848.088 691.398 848.52 692.006 848.52C692.63 848.52 693.046 848.088 693.046 847.528C693.046 846.952 692.63 846.52 692.006 846.52ZM692.758 859V850.568H691.286V859H692.758ZM698.969 850.376C696.569 850.376 695.193 852.184 695.193 854.792C695.193 857.464 696.553 859.192 698.953 859.192C701.337 859.192 702.713 857.384 702.713 854.776C702.713 852.104 701.369 850.376 698.969 850.376ZM698.969 851.56C700.361 851.56 701.129 852.584 701.129 854.776C701.129 856.984 700.361 858.008 698.953 858.008C697.545 858.008 696.777 856.984 696.777 854.792C696.777 852.584 697.561 851.56 698.969 851.56ZM709.113 850.376C708.009 850.376 707.113 850.952 706.537 851.816L706.409 850.568H705.145V859H706.617V853.016C707.177 852.12 707.817 851.528 708.761 851.528C709.577 851.528 710.089 851.896 710.089 853.16V859H711.561V852.952C711.561 851.352 710.665 850.376 709.113 850.376Z" fill="white"/>
</g>
<defs>
<clipPath id="clip0_0_2977">
<rect width="1062" height="1265" fill="white"/>
</clipPath>
</defs>
</svg>
