<svg width="59" height="46" viewBox="0 0 59 46" fill="none" xmlns="http://www.w3.org/2000/svg">
<path fill-rule="evenodd" clip-rule="evenodd" d="M58.5976 42.8611C58.5882 42.8896 58.5764 42.9181 58.5623 42.9442L58.5628 42.9438C58.5487 42.9723 58.5345 42.9984 58.5063 43.0174C58.4954 43.0348 58.4844 43.05 58.4734 43.0653C58.4679 43.073 58.4624 43.0806 58.4569 43.0886C58.4381 43.1123 58.417 43.1384 58.3958 43.1621C58.377 43.1811 58.3582 43.2001 58.337 43.2191C58.3135 43.2428 58.2876 43.2642 58.2618 43.2832C58.2509 43.2904 58.2389 43.2983 58.2266 43.3062C58.2148 43.3137 58.2027 43.3213 58.1912 43.3282C58.1842 43.3318 58.1773 43.3355 58.1704 43.3393C58.1656 43.3419 58.1608 43.3446 58.156 43.3473C58.1402 43.3562 58.1241 43.3651 58.1065 43.3733C58.097 43.3781 58.0873 43.3824 58.0773 43.3864C58.0665 43.3907 58.0555 43.3947 58.0444 43.3988C58.0354 43.4021 58.0263 43.4054 58.0172 43.4089C58.0109 43.4113 58.0049 43.414 57.9989 43.4166C57.9932 43.4191 57.9875 43.4216 57.9815 43.4239C57.975 43.4264 57.9681 43.4286 57.9607 43.4303C57.956 43.4315 57.9519 43.4315 57.9478 43.4315H57.9465C57.9428 43.4315 57.9391 43.4316 57.9349 43.4327C57.862 43.4517 57.7867 43.4635 57.7091 43.4635C57.6033 43.4635 57.5656 43.4801 57.5656 43.4801C57.5224 43.5307 57.4438 43.7838 57.394 43.9441L57.3893 43.9595C57.2058 44.5529 56.8225 45.7869 55.2727 45.7869C53.9471 45.7869 53.2886 44.8987 52.8068 44.2489L52.8034 44.2443C52.3518 43.6296 52.1802 43.4635 51.8415 43.4635C51.5029 43.4635 51.3335 43.6296 50.8796 44.2419L50.8763 44.2464C50.3945 44.8963 49.7359 45.7845 48.408 45.7845C47.0823 45.7845 46.4238 44.8963 45.942 44.2464L45.9386 44.2419C45.4871 43.6296 45.3154 43.4635 44.9767 43.4635C44.6404 43.4635 44.4688 43.6296 44.0149 44.2443C43.5351 44.8946 42.8742 45.7869 41.5455 45.7869C40.2175 45.7869 39.559 44.8987 39.0772 44.2489L39.0739 44.2443C38.6223 43.632 38.4506 43.4659 38.112 43.4659C37.7733 43.4659 37.604 43.632 37.1501 44.2443C36.6703 44.8946 36.0118 45.7869 34.6808 45.7869C33.3551 45.7869 32.6966 44.8987 32.2148 44.2489L32.2114 44.2443C31.7599 43.632 31.5882 43.4659 31.2496 43.4659C30.9133 43.4659 30.7416 43.6321 30.2877 44.2467C29.8079 44.897 29.1471 45.7894 27.8183 45.7894C26.4927 45.7894 25.8342 44.9012 25.3524 44.2513L25.349 44.2467C24.8975 43.6345 24.7258 43.4683 24.3871 43.4683C24.0508 43.4683 23.8791 43.6345 23.4253 44.2491C22.9455 44.8994 22.2846 45.7918 20.9559 45.7918C20.5349 45.7918 20.1516 45.6185 19.8812 45.3053C19.225 44.5506 19.3567 43.2643 19.6272 41.2281L19.6318 41.1928C19.7284 40.4561 19.8757 39.3325 19.8271 38.786C18.0704 39.1323 15.5775 42.6853 14.2841 45.2698C14.1242 45.5926 13.7973 45.7919 13.4445 45.7919C13.4257 45.7919 13.4069 45.7919 13.3881 45.7895C13.0142 45.7682 12.6873 45.5238 12.5603 45.1678C12.3439 44.5645 10.4955 39.1941 12.4168 36.2228C13.1364 35.1121 14.3029 34.4737 15.7939 34.3764C17.0897 34.291 17.6823 33.9397 17.7952 33.662C17.8705 33.4769 17.7505 33.1613 17.4871 32.8599C16.7863 32.0553 15.22 31.4098 13.4375 31.8987C10.9657 32.5731 8.19536 35.9169 7.26172 39.3534C6.93481 40.5614 6.58201 42.797 7.91782 44.1806C8.27999 44.5579 8.27058 45.1583 7.89901 45.5238C7.52508 45.8893 6.93247 45.8821 6.56796 45.5048C5.09341 43.9789 4.69597 41.6152 5.44617 38.8527C6.41727 35.2738 9.48876 31.0091 12.9458 30.0669C15.5209 29.3645 17.7903 30.3327 18.9003 31.6072C19.6694 32.4876 19.8998 33.501 19.5353 34.3886C19.2179 35.16 18.3336 36.114 15.916 36.273C15.0153 36.3324 14.3874 36.6575 13.9947 37.2626C13.2021 38.4872 13.3856 40.6587 13.7454 42.3912C15.1565 40.1057 17.6329 36.7856 20.1963 36.8663C20.6102 36.8805 20.9841 37.0609 21.2475 37.3765C21.5109 37.6898 21.6402 38.0956 21.6873 38.5987C23.4181 37.443 25.9442 36.299 30.9298 35.7912C25.5253 13.6963 35.685 1.25815 36.1459 0.709935C36.1499 0.705973 36.1538 0.702837 36.1575 0.699838C36.1628 0.695653 36.1677 0.691733 36.1718 0.686203C36.2 0.655349 36.2282 0.629243 36.2588 0.603138C36.2776 0.584152 36.2964 0.567539 36.3176 0.5533C36.3465 0.533858 36.3754 0.517602 36.4056 0.500617L36.4258 0.489221C36.4446 0.477354 36.4634 0.465488 36.4846 0.455995C36.5293 0.437009 36.5739 0.42277 36.621 0.410903C36.6319 0.409322 36.6429 0.40563 36.6539 0.401939L36.6539 0.401925C36.6594 0.400084 36.6649 0.398243 36.6704 0.396664C36.7339 0.382424 36.7997 0.375305 36.8679 0.375305L37.0067 0.380051C37.2842 0.380051 37.5452 0.501088 37.7239 0.714679C38.1848 1.26026 48.2949 13.6349 42.9871 35.6228C56.8667 36.4438 58.5647 42.0328 58.6305 42.2773C58.6329 42.2868 58.6329 42.2986 58.6352 42.3081L58.6493 42.4007C58.654 42.4339 58.6587 42.4671 58.6587 42.5004C58.6587 42.5027 58.6589 42.505 58.6591 42.5073L58.6599 42.5146C58.6602 42.5172 58.6605 42.5197 58.6608 42.5223C58.661 42.5245 58.6611 42.5266 58.6611 42.5288C58.6611 42.5352 58.6608 42.5412 58.6604 42.5472C58.6597 42.5574 58.6584 42.5672 58.6571 42.5777L58.6564 42.5834L58.6561 42.5868C58.6539 42.6191 58.6514 42.6534 58.6446 42.6855C58.6434 42.6927 58.6421 42.6999 58.6406 42.7071C58.6394 42.7131 58.6381 42.7192 58.6368 42.7253C58.6334 42.7405 58.6296 42.7557 58.6258 42.7709L58.621 42.7874L58.6177 42.799C58.6117 42.8203 58.6058 42.8413 58.5976 42.8611ZM37.8081 38.5465H40.2398C45.5949 20.8735 40.5573 8.95949 37.8081 4.22958V38.5465ZM35.9267 4.47868V38.5465H33.6338C28.3824 21.2173 33.1564 9.37919 35.9267 4.47868ZM55.599 43.42L55.6038 43.4045L55.6031 43.4046C55.7136 43.0486 55.9017 42.4648 56.365 42.0542C55.3235 40.7252 52.0381 37.9959 42.5018 37.4999C42.2949 38.2523 42.0714 39.0141 41.8269 39.7877C41.7022 40.1817 41.3401 40.4498 40.9309 40.4498H32.94C32.5308 40.4498 32.1686 40.1817 32.0439 39.7877C31.8182 39.0663 31.6112 38.3566 31.416 37.6566C25.3696 38.2309 23.206 39.7616 21.5528 41.0527C21.5454 41.1082 21.5385 41.1634 21.5314 41.2191C21.5204 41.3061 21.5092 41.3943 21.4963 41.4869C21.4046 42.1799 21.2635 43.2479 21.2917 43.8175C21.4634 43.7154 21.6375 43.5066 21.9197 43.1221L21.923 43.1176C22.4049 42.4677 23.0634 41.5795 24.3914 41.5795C25.717 41.5795 26.3755 42.4677 26.8573 43.1175L26.8607 43.1221C27.3122 43.7344 27.4839 43.9005 27.8226 43.9005C28.1612 43.9005 28.3306 43.7344 28.7844 43.1221L28.7878 43.1176C29.2696 42.4677 29.9282 41.5795 31.2561 41.5795C32.5818 41.5795 33.2403 42.4677 33.7221 43.1175L33.7255 43.1221C34.1794 43.7344 34.351 43.9005 34.6873 43.9005C35.026 43.9005 35.1953 43.7344 35.6492 43.1221C36.129 42.4719 36.7875 41.5795 38.1185 41.5795C39.4442 41.5795 40.1027 42.4677 40.5845 43.1175L40.5879 43.1221C41.0418 43.7368 41.2135 43.9029 41.5521 43.9029C41.8908 43.9029 42.0601 43.7368 42.514 43.1245L42.5173 43.12C42.9992 42.4701 43.6577 41.5819 44.9857 41.5819C46.3113 41.5819 46.9698 42.4701 47.4516 43.12L47.455 43.1245C47.9065 43.7368 48.0782 43.9029 48.4169 43.9029C48.7555 43.9029 48.9272 43.7368 49.3811 43.1221C49.8609 42.4719 50.5217 41.5795 51.8504 41.5795C53.1784 41.5795 53.8369 42.4677 54.3187 43.1175L54.3221 43.1221C54.776 43.7344 54.9477 43.9005 55.284 43.9005C55.3898 43.9005 55.4274 43.8839 55.4274 43.8839C55.4707 43.8333 55.5492 43.5803 55.599 43.42Z" fill="white"/>
<path d="M6.28832 30.1357C6.16838 29.991 5.07719 28.7308 3.68028 28.7308C3.03356 28.7308 2.10931 28.999 1.38265 30.2734L0.571278 31.6974H7.59107L6.28832 30.1357Z" fill="white"/>
<path fill-rule="evenodd" clip-rule="evenodd" d="M0.948291 30.0257C1.76929 28.5858 2.86509 28.2308 3.68027 28.2308C4.52666 28.2308 5.25116 28.61 5.75544 28.9733C6.2633 29.3392 6.59631 29.7239 6.67278 29.8161C6.67297 29.8163 6.67259 29.8158 6.67278 29.8161L8.65932 32.1974H-0.289089L0.948291 30.0257ZM1.817 30.5211C1.81698 30.5211 1.81703 30.521 1.817 30.5211L1.43164 31.1974H6.52283L5.90437 30.456L5.90329 30.4547C5.85873 30.4009 5.58658 30.0841 5.17089 29.7846C4.75036 29.4817 4.2308 29.2308 3.68027 29.2308C3.20205 29.2308 2.44931 29.4122 1.817 30.5211Z" fill="#222532"/>
<path fill-rule="evenodd" clip-rule="evenodd" d="M4.46383 33.5745L5.43041 33.6766L5.30816 34.6496C4.95301 37.2791 2.20621 40.0535 2.08862 40.1721L0.816331 41.4442L0.501199 39.6643C0.127271 37.5711 0.393012 35.962 1.28903 34.8822C2.54248 33.3704 4.46383 33.5745 4.46383 33.5745ZM2.73532 36.0997C2.56834 36.299 2.4437 36.553 2.35669 36.852L2.35669 36.852C2.55659 36.5506 2.74943 36.235 2.91405 35.9169C2.8529 35.9715 2.79176 36.0309 2.73532 36.0997Z" fill="white"/>
<path fill-rule="evenodd" clip-rule="evenodd" d="M4.51603 33.0802C4.51629 33.0773 4.51625 33.0773 4.51621 33.0773L4.51464 33.0771L4.51192 33.0768L4.50437 33.0761L4.48098 33.0741C4.46179 33.0726 4.43548 33.0709 4.4027 33.0693C4.33719 33.0662 4.24548 33.0639 4.13281 33.0664C3.90811 33.0714 3.5963 33.0958 3.24066 33.1728C2.53013 33.3266 1.62272 33.6964 0.904251 34.5629M4.51603 33.0802L4.51621 33.0773L5.99008 33.2329L5.80368 34.7165C5.60919 36.1565 4.77354 37.5899 4.01524 38.6444C3.24752 39.712 2.51086 40.4564 2.44378 40.5241L2.44215 40.5257L0.491276 42.4763L0.00899063 39.7522C0.00896953 39.7521 0.00901173 39.7523 0.00899063 39.7522C-0.377274 37.5896 -0.125427 35.8039 0.904251 34.5629M3.45229 34.1501C2.88882 34.2721 2.2089 34.5561 1.67393 35.2013C0.911733 36.1198 0.631922 37.5528 0.993407 39.5763L1.14139 40.4122L1.73346 39.8202C1.73373 39.8199 1.73401 39.8196 1.7343 39.8193C1.79121 39.7619 2.48328 39.0619 3.20337 38.0605C3.9362 37.0414 4.65111 35.7738 4.81236 34.5849L4.87073 34.1203L4.41294 34.0719L4.40292 34.0711C4.39335 34.0703 4.37715 34.0692 4.35495 34.0681C4.31049 34.066 4.24231 34.0642 4.15526 34.0661C3.98053 34.0701 3.73367 34.0892 3.45229 34.1501ZM2.35037 35.7806C2.42892 35.6851 2.51016 35.6072 2.5811 35.5439L3.35809 36.1468C3.18275 36.4855 2.97978 36.8172 2.77338 37.1284L2.2915 37.855L1.8225 36.8982L1.8766 36.7123C1.97737 36.366 2.12898 36.0456 2.35037 35.7806Z" fill="#222532"/>
<path fill-rule="evenodd" clip-rule="evenodd" d="M11.7066 28.2913C11.7066 29.2833 10.9046 30.0902 9.92163 30.0902C8.93862 30.0902 8.13905 29.2833 8.13905 28.2913C8.13905 27.2993 8.93862 26.4924 9.92163 26.4924C10.907 26.4924 11.7066 27.2993 11.7066 28.2913ZM10.0204 28.2912C10.0204 28.2367 9.97572 28.1916 9.92163 28.1916C9.86754 28.1916 9.82521 28.2367 9.82521 28.2912C9.82521 28.4004 10.0204 28.4004 10.0204 28.2912Z" fill="white"/>
<path fill-rule="evenodd" clip-rule="evenodd" d="M7.63905 28.2913C7.63905 27.0274 8.65819 25.9924 9.92163 25.9924C11.187 25.9924 12.2066 27.027 12.2066 28.2913C12.2066 29.556 11.1842 30.5902 9.92163 30.5902C8.65819 30.5902 7.63905 29.5551 7.63905 28.2913ZM9.92163 26.9924C9.21905 26.9924 8.63905 27.5711 8.63905 28.2913C8.63905 29.0114 9.21905 29.5902 9.92163 29.5902C10.6251 29.5902 11.2066 29.0106 11.2066 28.2913C11.2066 27.5715 10.627 26.9924 9.92163 26.9924ZM9.92163 28.6916C10.1635 28.6916 10.3252 28.4926 10.3252 28.2912C10.3252 28.1492 10.2533 28.0255 10.1546 27.9518C10.0702 27.8889 9.98372 27.8731 9.92281 27.8731C9.92242 27.8731 9.92202 27.8731 9.92163 27.8731C9.86078 27.8733 9.77489 27.8893 9.691 27.9518C9.59227 28.0255 9.5204 28.1492 9.5204 28.2912C9.5204 28.5085 9.69529 28.6916 9.92163 28.6916ZM9.32521 28.2912C9.32521 27.9807 9.57163 27.6916 9.92163 27.6916C10.2562 27.6916 10.5204 27.9648 10.5204 28.2912C10.5204 28.4879 10.4241 28.6526 10.2888 28.7535C10.1678 28.8437 10.0325 28.8731 9.92281 28.8731C9.81309 28.8731 9.67783 28.8437 9.55681 28.7535C9.42148 28.6526 9.32521 28.4879 9.32521 28.2912Z" fill="#222532"/>
</svg>
